<svg width="24" height="24" viewBox="0 0 24 24" fill="none" xmlns="http://www.w3.org/2000/svg">
<g id="Interface, Essential/attachment-link.3">
<g id="Group">
<path id="Path" d="M9.99902 13.0004L10.9524 13.9538C11.7029 14.7043 12.7208 15.1259 13.7821 15.1259C14.8434 15.1259 15.8613 14.7043 16.6118 13.9538L19.644 10.9215C21.457 9.10839 21.457 6.16893 19.644 4.35579V4.35579C17.8309 2.54286 14.8914 2.54286 13.0783 4.35579L12.1909 5.24416" stroke="#C9CBDA" stroke-width="1.5" stroke-linecap="round" stroke-linejoin="round"/>
<path id="Path_2" d="M14.0008 9.99907L13.0474 9.04567C12.297 8.29517 11.2791 7.87354 10.2177 7.87354C9.15639 7.87354 8.13852 8.29517 7.38806 9.04567L4.35579 12.0779C2.54286 13.8911 2.54286 16.8305 4.35579 18.6437V18.6437C6.16893 20.4566 9.10839 20.4566 10.9215 18.6437L11.8089 17.7553" stroke="#C9CBDA" stroke-width="1.5" stroke-linecap="round" stroke-linejoin="round"/>
</g>
</g>
</svg>
