<svg width="24" height="25" viewBox="0 0 24 25" fill="none" xmlns="http://www.w3.org/2000/svg">
<path d="M16 2.5V6.5" stroke="#323232" stroke-width="1.5" stroke-linecap="round" stroke-linejoin="round"/>
<path d="M8 2.5V6.5" stroke="#323232" stroke-width="1.5" stroke-linecap="round" stroke-linejoin="round"/>
<path d="M3 9.5H21" stroke="#323232" stroke-width="1.5" stroke-linecap="round" stroke-linejoin="round"/>
<path fill-rule="evenodd" clip-rule="evenodd" d="M19 4.5H5C3.895 4.5 3 5.395 3 6.5V19.5C3 20.605 3.895 21.5 5 21.5H19C20.105 21.5 21 20.605 21 19.5V6.5C21 5.395 20.105 4.5 19 4.5Z" stroke="#323232" stroke-width="1.5" stroke-linecap="round" stroke-linejoin="round"/>
<path d="M7.01268 13.2285C6.87468 13.2285 6.76268 13.3405 6.76368 13.4785C6.76368 13.6165 6.87568 13.7285 7.01368 13.7285C7.15168 13.7285 7.26368 13.6165 7.26368 13.4785C7.26368 13.3405 7.15168 13.2285 7.01268 13.2285" stroke="#323232" stroke-width="1.5" stroke-linecap="round" stroke-linejoin="round"/>
<path d="M12.0127 13.2285C11.8747 13.2285 11.7627 13.3405 11.7637 13.4785C11.7637 13.6165 11.8757 13.7285 12.0137 13.7285C12.1517 13.7285 12.2637 13.6165 12.2637 13.4785C12.2637 13.3405 12.1517 13.2285 12.0127 13.2285" stroke="#323232" stroke-width="1.5" stroke-linecap="round" stroke-linejoin="round"/>
<path d="M17.0127 13.2285C16.8747 13.2285 16.7627 13.3405 16.7637 13.4785C16.7637 13.6165 16.8757 13.7285 17.0137 13.7285C17.1517 13.7285 17.2637 13.6165 17.2637 13.4785C17.2637 13.3405 17.1517 13.2285 17.0127 13.2285" stroke="#323232" stroke-width="1.5" stroke-linecap="round" stroke-linejoin="round"/>
<path d="M7.01268 17.2285C6.87468 17.2285 6.76268 17.3405 6.76368 17.4785C6.76368 17.6165 6.87568 17.7285 7.01368 17.7285C7.15168 17.7285 7.26368 17.6165 7.26368 17.4785C7.26368 17.3405 7.15168 17.2285 7.01268 17.2285" stroke="#323232" stroke-width="1.5" stroke-linecap="round" stroke-linejoin="round"/>
<path d="M12.0127 17.2285C11.8747 17.2285 11.7627 17.3405 11.7637 17.4785C11.7637 17.6165 11.8757 17.7285 12.0137 17.7285C12.1517 17.7285 12.2637 17.6165 12.2637 17.4785C12.2637 17.3405 12.1517 17.2285 12.0127 17.2285" stroke="#323232" stroke-width="1.5" stroke-linecap="round" stroke-linejoin="round"/>
</svg>
