<svg width="20" height="21" viewBox="0 0 20 21" fill="none" xmlns="http://www.w3.org/2000/svg">
<path d="M9.99899 5.8125C9.87233 5.8125 9.76983 5.915 9.77149 6.04166C9.77149 6.16833 9.87399 6.27083 10.0007 6.27083C10.1273 6.27083 10.2298 6.16833 10.2298 6.04166C10.2282 5.915 10.1265 5.8125 9.99899 5.8125" stroke="#323232" stroke-width="1.24999" stroke-linecap="round" stroke-linejoin="round"/>
<path d="M5.76944 10.499C5.76944 10.3723 5.66694 10.2698 5.5411 10.2715C5.41444 10.2715 5.31194 10.374 5.31194 10.5007C5.31194 10.6273 5.41444 10.7298 5.5411 10.7298C5.66777 10.7298 5.76944 10.6265 5.76944 10.499" stroke="#323232" stroke-width="1.24999" stroke-linecap="round" stroke-linejoin="round"/>
<path d="M13.3139 7.18519C13.2247 7.09603 13.0797 7.09603 12.9914 7.18603C12.9022 7.27519 12.9022 7.42019 12.9914 7.50936C13.0805 7.59852 13.2255 7.59852 13.3147 7.50936C13.4039 7.41936 13.4039 7.27519 13.3139 7.18519" stroke="#323232" stroke-width="1.24999" stroke-linecap="round" stroke-linejoin="round"/>
<path d="M7.00821 13.4909C6.91905 13.4017 6.77405 13.4017 6.68571 13.4917C6.59655 13.5809 6.59655 13.7259 6.68571 13.815C6.77488 13.9042 6.91988 13.9042 7.00905 13.815C7.09821 13.7259 7.09821 13.5809 7.00821 13.4909" stroke="#323232" stroke-width="1.24999" stroke-linecap="round" stroke-linejoin="round"/>
<path d="M7.00946 7.50821C7.09863 7.41905 7.09863 7.27405 7.00863 7.18571C6.91946 7.09655 6.77446 7.09655 6.6853 7.18571C6.59613 7.27488 6.59613 7.41988 6.6853 7.50905C6.77446 7.59821 6.91946 7.59821 7.00946 7.50821" stroke="#323232" stroke-width="1.24999" stroke-linecap="round" stroke-linejoin="round"/>
<path fill-rule="evenodd" clip-rule="evenodd" d="M9.99957 17.9995C5.7871 17.9995 2.38546 14.5262 2.50296 10.2871C2.61129 6.37376 5.87376 3.11129 9.78707 3.00296C14.0262 2.88546 17.4995 6.2871 17.4995 10.4996V11.3329C17.4995 12.2537 16.7537 12.9996 15.8329 12.9996H14.1137C13.0062 12.9996 12.2071 14.0595 12.5112 15.1237L12.7254 15.8745C13.0304 16.9395 12.2304 17.9995 11.1237 17.9995H9.99957Z" stroke="#323232" stroke-width="1.24999" stroke-linecap="round" stroke-linejoin="round"/>
</svg>
