<svg viewBox="0 0 20 20" fill="none" xmlns="http://www.w3.org/2000/svg">
<path d="M15.4186 9.99985C15.4186 10.2301 15.232 10.4167 15.0018 10.4167C14.7716 10.4167 14.585 10.2301 14.585 9.99985C14.585 9.76963 14.7716 9.58301 15.0018 9.58301C15.232 9.58301 15.4186 9.76963 15.4186 9.99985" stroke="currentColor" stroke-width="1.25" stroke-linecap="round" stroke-linejoin="round"/>
<path d="M10.4167 9.99985C10.4167 10.2301 10.2301 10.4167 9.99985 10.4167C9.76963 10.4167 9.58301 10.2301 9.58301 9.99985C9.58301 9.76963 9.76963 9.58301 9.99985 9.58301C10.2301 9.58301 10.4167 9.76963 10.4167 9.99985" stroke="currentColor" stroke-width="1.25" stroke-linecap="round" stroke-linejoin="round"/>
<path d="M5.41474 9.99985C5.41474 10.2301 5.22811 10.4167 4.99789 10.4167C4.76768 10.4167 4.58105 10.2301 4.58105 9.99985C4.58105 9.76963 4.76768 9.58301 4.99789 9.58301C5.22811 9.58301 5.41474 9.76963 5.41474 9.99985" stroke="currentColor" stroke-width="1.25" stroke-linecap="round" stroke-linejoin="round"/>
</svg>
