<svg width="24" height="24" viewBox="0 0 24 24" fill="none" xmlns="http://www.w3.org/2000/svg">
<g id="Emails/Email, @, Mail, Mail icon">
<g id="Group">
<path id="Path" d="M16 12C16 14.209 14.209 16 12 16C9.791 16 8 14.209 8 12C8 9.791 9.791 8 12 8V8C14.209 8 16 9.791 16 12V13.5C16 14.881 17.119 16 18.5 16C19.881 16 21 14.881 21 13.5V12C21 7.029 16.971 3 12 3C7.029 3 3 7.029 3 12C3 16.971 7.029 21 12 21C13.149 21 14.317 20.782 15.444 20.315C16.052 20.063 16.614 19.747 17.133 19.386" stroke="#C9CBDA" stroke-width="1.5" stroke-linecap="round" stroke-linejoin="round"/>
</g>
</g>
</svg>
