<?xml version="1.0" encoding="UTF-8"?><svg xmlns="http://www.w3.org/2000/svg" viewBox="0 0 1473.68 1316.18"><defs><style>.d{fill:#fff;}.e{fill:#3a6bea;}.f{fill:#e9ddca;}.g{fill:#e49b31;}.h{fill:#1f3c88;}.i{opacity:.8;}.j{fill:#f7f0e3;}.k{fill:#eb5d60;opacity:.4;}.l{fill:#e28b6d;}.m{fill:#102048;}.n{fill:#fbc343;}.o{fill:#d3dfff;}.p{fill:#f9b384;}</style></defs><g id="a"/><g id="b"><g id="c"><g><g><g><path class="j" d="M1431.01,952c-24.1-54.82-70.39-100.57-125.99-123.08-57.91-23.45-124.41-14.92-185.41-22.77-52.98-6.82-91.2-30.47-122.84-72.52-30.31-40.29-57.49-84.91-107.04-103.55-39.16-14.73-83.68-10.64-122.6,4.7-71.71,28.28-125.88,88.4-171.5,148.3-41.65,54.69-75.62,114.57-152.66,116.52-77.09,1.95-150.48-42.02-228.09-30.37-102.58,15.4-188.02,100.8-205.92,202.46-16.78,95.28,25.32,187.7,97.65,241.99H1349.83c91.14-96.69,138.96-230.25,81.18-361.68Z"/><g><path class="d" d="M307.16,1313.68h3.42c23.75-26.11,42.36-57.78,54.18-92.94,19.14-56.91,18.34-116.64-2.27-168.18-10.41-26.05-25.45-50.32-40-73.8-14.75-23.81-30-48.43-40.35-74.81-4.28-10.91-7.44-22.62-9.34-34.57-.86-.11-1.72-.2-2.57-.31,1.91,12.38,5.16,24.51,9.59,35.79,10.43,26.59,25.75,51.31,40.56,75.21,14.49,23.38,29.47,47.57,39.8,73.41,20.39,50.99,21.18,110.11,2.22,166.46-11.97,35.6-30.97,67.57-55.23,93.74Z"/><path class="d" d="M1343.82,1205.26c25.62,5.46,50.3,10.35,74.17,13.43,.41-.79,.81-1.58,1.21-2.37-24.07-3.06-48.99-7.99-74.86-13.51-39.4-8.39-82.04-17.48-124.34-17.48-26.19,0-52.24,3.48-77.3,12.77-9.49,3.52-18.64,7.98-27.36,13.3-22.63-9.64-45.38-20.17-67.91-31.73,16.35-12.32,32.88-24.38,49.58-36.04,123.98-86.57,238.4-135.65,348.94-149.58-.22-.81-.45-1.62-.68-2.43-110.84,14.04-225.5,63.25-349.68,149.96-17.06,11.91-33.93,24.24-50.62,36.82-25.34-13.09-50.38-27.48-74.62-43.36-43.96-28.8-96.24-69.91-141.9-124.54,176.95-19.85,357.1-44.86,504.22-143.19,5.59-3.73,11.78-8.14,18.19-13.13-.71-.5-1.43-1-2.14-1.5-6.14,4.76-12.07,8.96-17.43,12.55-147.08,98.3-327.57,123.12-504.74,142.97-32.27-39.03-61.1-84.87-81.13-137.94-31.21-82.67-29.56-163.79,4.52-222.58,1.48-2.55,3.04-5.07,4.65-7.55-1.42,.65-2.83,1.33-4.24,2.01-.88,1.42-1.74,2.85-2.57,4.29-34.46,59.44-36.17,141.34-4.7,224.71,19.93,52.78,48.5,98.44,80.5,137.39-10.26,1.15-20.52,2.28-30.74,3.41-36.89,4.07-75.05,8.28-112.09,13.05-13.52,1.74-27.27,3.77-40.96,6.32-29.33-61.91-61.55-122.3-103.2-174.1-.6,.59-1.2,1.17-1.8,1.76,41.29,51.4,73.31,111.35,102.47,172.82-59.68,11.38-117.63,32.78-148.57,82.58-28.9,46.51-28.87,110.8,.08,191.08,1,2.78,2.03,5.51,3.08,8.23h2.68c-1.15-2.97-2.29-5.98-3.4-9.08-28.68-79.53-28.78-143.09-.31-188.92,30.57-49.21,88.21-70.32,147.56-81.56,10.36,21.9,20.36,43.99,30.3,65.94l1.08,2.39c34.53,76.22,70.24,149.77,116.99,211.24h3.12c-47.18-61.58-83.09-135.57-117.84-212.27l-1.08-2.39c-9.86-21.76-19.78-43.66-30.04-65.38,13.42-2.48,26.91-4.47,40.17-6.17,37.02-4.77,75.16-8.98,112.05-13.05,10.77-1.19,21.57-2.38,32.37-3.59,46.1,55.48,99.05,97.16,143.51,126.29,23.97,15.71,48.73,29.96,73.78,42.94-42.53,32.17-83.89,66.01-124.28,99.05-13.99,11.44-28.13,23-42.39,34.56h3.96c13.45-10.91,26.8-21.82,40.01-32.62,40.67-33.27,82.33-67.36,125.16-99.71,22.41,11.53,45.03,22.04,67.54,31.67-30.79,19.58-55.89,49.91-71.06,86.73-1.9,4.61-3.56,9.27-5.09,13.94h2.63c1.45-4.35,3-8.69,4.77-12.99,15.21-36.92,40.52-67.22,71.55-86.49,62.92,26.73,124.75,46.57,177.89,62.29l2,.59c22.39,6.62,45.29,13.41,65.55,24.3,.57-.65,1.14-1.29,1.7-1.94-20.59-11.17-43.82-18.05-66.54-24.76l-2-.59c-52.59-15.56-113.72-35.16-175.96-61.49,8.11-4.83,16.6-8.9,25.38-12.16,64.86-24.04,136.79-8.71,200.25,4.81Z"/><path class="d" d="M112.88,1043.32c11.04,45.2,6.12,94.01-13.52,133.92-12.86,26.14-31.43,49.81-54.3,70.13,.45,.71,.92,1.41,1.38,2.11,23.24-20.59,42.11-44.6,55.16-71.14,19.89-40.43,24.88-89.86,13.7-135.62-8.73-35.75-26.29-66.03-50.56-87.94-.54,.64-1.08,1.28-1.61,1.92,23.86,21.57,41.13,51.4,49.74,86.62Z"/></g></g><path class="j" d="M678.7,470.76c21.78,22.25,31.54,59.75,19.53,94.31-11.63,33.47-37.12,61.19-67.74,79.02-24.64,14.34-56.78,22.25-81.01,7.23-18.11-11.22-27.5-33.24-28.02-54.53-.52-21.3,6.64-42.05,15.49-61.43,12.48-27.31,29.27-53.8,54.29-70.41,34.48-22.9,66.52-15.58,87.46,5.81Z"/></g><g><path class="f" d="M390.01,80.56H209.67V0h180.34V80.56Zm-176.59-3.75h172.84V3.75H213.42V76.81Z"/><path class="f" d="M272.69,157.61H92.35V77.04h180.34v80.56Zm-176.59-3.75h172.84V80.79H96.1v73.06Z"/></g><g><g><path class="g" d="M1416.1,243.45c-11.68-38.83-32.22-74.48-61.62-107.07-29.46-32.59-69.64-59.5-120.54-80.78-50.9-21.28-115.57-31.92-194.01-31.92-62.58,0-126.35,8.44-191.32,25.32-65.03,16.94-121.44,41.03-169.28,72.34l62.28,170.98-33.38,27.04,48.41,14.23c47.78-25.01,91.32-43.17,130.6-54.48,39.22-11.25,80.9-16.88,125.09-16.88s77.55,10.64,100.24,31.92c22.69,21.34,34.01,46.96,34.01,77.05,0,36.32-11.68,68.55-34.91,96.74-23.35,28.19-49.1,56.68-77.31,85.48-19.58,20-38.62,40.66-57.01,61.94-18.38,21.34-34.67,44.15-48.74,68.61-14.13,24.4-25.45,50.69-34.01,78.88-8.62,28.19-12.87,59.8-12.87,94.84,0,11.31,.24,24.76,.9,40.42,.11,2.89,.26,5.7,.43,8.48h-45.76l49.94,33.77h242.82c-1.26-7.52-1.86-16.27-1.86-26.29v-22.56c0-21.28,4.31-42.25,12.87-62.92,8.56-20.67,19.34-40.36,32.22-59.19,12.87-18.77,27.25-36.63,43.23-53.5,15.93-16.94,31.26-32.9,45.99-47.94,19.58-20,39.82-41.27,60.66-63.84,20.84-22.56,39.28-46.29,55.21-71.36,15.93-25.07,29.1-52.28,39.52-81.75,10.42-29.41,15.69-61.64,15.69-96.74s-5.87-71.97-17.49-110.8Z"/><path class="n" d="M960.92,250.3c-43.67,0-84.86,5.44-123.62,16.33-38.82,10.95-81.84,28.52-129.07,52.73l-76.4-205.41c47.28-30.3,103.03-53.62,167.3-70.01,64.21-16.33,127.23-24.5,189.07-24.5,77.52,0,141.44,10.3,191.74,30.89,50.3,20.59,90.01,46.63,119.13,78.17,29.06,31.54,49.35,66.04,60.89,103.62,11.48,37.58,17.28,73.32,17.28,107.23s-5.21,65.16-15.5,93.62c-10.3,28.52-23.32,54.86-39.06,79.12-15.74,24.26-33.97,47.22-54.56,69.06-20.59,21.84-40.6,42.43-59.95,61.78-14.56,14.56-29.71,30-45.45,46.4-15.8,16.33-30,33.61-42.73,51.78-12.72,18.23-23.38,37.28-31.84,57.28-8.46,20-12.72,40.3-12.72,60.89v21.84c0,9.71,.59,18.17,1.83,25.45h-239.97c-2.49-12.13-3.96-25.74-4.56-40.89-.65-15.15-.89-28.17-.89-39.12,0-33.91,4.2-64.5,12.72-91.79,8.46-27.28,19.65-52.73,33.61-76.34,13.91-23.67,30-45.74,48.17-66.4,18.17-20.59,36.99-40.6,56.34-59.95,27.87-27.87,53.32-55.45,76.4-82.73,22.96-27.28,34.5-58.47,34.5-93.62,0-29.12-11.18-53.91-33.61-74.56-22.43-20.59-55.45-30.89-99.06-30.89Z"/></g><g><path class="g" d="M1146.67,1176.05c0,43.78-14.17,77.56-42.52,101.39-28.34,23.88-60.38,35.77-96.15,35.77s-67.85-11.89-96.19-35.77c-28.3-23.83-42.47-57.61-42.47-101.39s14.17-77.51,42.47-101.39c43.63-36.82,108.18-45.02,159.26-19.18,45.33,22.93,75.6,69.5,75.6,120.57Z"/><path class="n" d="M1099.17,1176.05c0,43.78-14.17,77.56-42.52,101.39-28.34,23.88-60.38,35.77-96.15,35.77s-67.85-11.89-96.19-35.77c-28.3-23.83-42.47-57.61-42.47-101.39s14.17-77.51,42.47-101.39c28.34-23.83,60.38-35.77,96.19-35.77s67.8,11.94,96.15,35.77c28.34,23.88,42.52,57.66,42.52,101.39Z"/></g></g><g><g><circle class="o" cx="354.62" cy="550.61" r="26.15" transform="translate(-251.9 797.73) rotate(-79.38)"/><ellipse class="o" cx="378.26" cy="601.82" rx="14.71" ry="14.81" transform="translate(-282.94 862.76) rotate(-79.39)"/><g><circle class="o" cx="290.09" cy="418.95" r="102.96" transform="translate(-211.27 327.83) rotate(-45)"/><g><circle class="d" cx="250.56" cy="418.95" r="12.97"/><circle class="d" cx="290.09" cy="418.95" r="12.97"/><circle class="d" cx="329.63" cy="418.95" r="12.97"/></g></g></g><g><g><g><path class="m" d="M216.33,1261.67l9.62,37.09c2.51,9.67,11.86,16.21,22.21,15.5,31.54-2.14,97.08-9.87,134.7-37.6l-10.69-53.45c-51.72-2.92-100.08-.04-141.97,14.05-10.49,3.53-16.55,14.04-13.86,24.4Z"/><path class="d" d="M276.61,1291.19c-.55,0-1.05-.36-1.2-.91l-12.92-46.25c-.19-.66,.2-1.35,.87-1.54,.67-.18,1.36,.2,1.54,.87l12.92,46.25c.19,.67-.2,1.35-.87,1.54-.11,.03-.23,.05-.34,.05Z"/><path class="d" d="M304.53,1284.94c-.55,0-1.05-.36-1.2-.91l-12.92-46.25c-.19-.66,.2-1.35,.87-1.54,.67-.19,1.36,.2,1.54,.87l12.92,46.25c.19,.67-.2,1.35-.87,1.54-.11,.03-.23,.05-.34,.05Z"/></g><polygon class="n" points="336.95 1061.19 216.75 1096.86 306.02 1219.18 434.18 1229.37 610.94 1154.62 543.77 1053.54 336.95 1061.19"/><path class="n" d="M485.14,1078.18c263.98-78.14,306.4,155.16-105.47,197.63-14.55-16.37-31.55-44.77-38.3-68.52l217.5-100.51-73.73-28.6Z"/><path class="p" d="M496.36,1245.38c-12.35-3.95-24.18-11.76-24.18-11.76l-42.42,13.31,9.72,46.15,44.07,8.95c13.43-24.56,14.21-44.72,12.81-56.65Z"/><path class="g" d="M342.31,1208.91l-1.88-3.24c45.38-26.37,161.6-89.72,260.63-108.41l.7,3.69c-98.45,18.58-214.23,81.69-259.44,107.96Z"/><path class="n" d="M336.95,1061.19c-245.71-46.72-309.35,189.42,102.53,231.89,14.55-16.37,25.95-35.71,32.7-59.46-63.27-42.33-134.01-82.57-211.53-120.9l76.31-51.53Z"/><path class="g" d="M471.17,1235.2c-11.69-7.44-23.87-15.3-36.76-23.63-64.73-41.79-138.09-89.16-200.42-116.17l1.49-3.44c62.61,27.13,136.11,74.59,200.96,116.46,12.89,8.32,25.06,16.18,36.74,23.62l-2.01,3.16Z"/><path class="g" d="M156.68,1178.27l-3.28-1.81c9.22-16.7,24-27.96,43.91-33.47l1,3.61c-19.17,5.31-32.79,15.67-41.63,31.67Z"/><path class="g" d="M669.51,1164.05c-8.84-16-22.46-26.36-41.63-31.67l1-3.61c19.91,5.51,34.69,16.78,43.91,33.47l-3.28,1.81Z"/><path class="g" d="M416.47,1291l-2.74-2.56c19.66-21.05,31.73-43.27,36.91-67.94l3.67,.77c-5.32,25.35-17.7,48.16-37.83,69.73Z"/><g><path class="m" d="M618.9,1231.64c-31.48-19.45-92.51,14.16-107.83,15.86-4.47,.5-9.63-.48-14.71-2.11,1.4,11.93,.62,32.09-12.81,56.65l7.49,1.52s51.75,18.97,106.65,7.93c50.67-10.19,45.96-64.55,21.21-79.84Z"/><path class="d" d="M575.99,1295.25c-.12,0-.25-.02-.38-.06-.66-.21-1.02-.91-.82-1.57,3.74-11.84,5.37-35.14-5.46-50.79-.39-.57-.25-1.35,.32-1.74,.57-.39,1.35-.25,1.74,.32,11.34,16.39,9.68,40.65,5.79,52.96-.17,.53-.66,.87-1.19,.87Z"/><path class="d" d="M551.3,1299.94c-.12,0-.25-.02-.38-.06-.66-.21-1.02-.91-.82-1.57,3.74-11.84,5.37-35.14-5.46-50.79-.39-.57-.25-1.35,.32-1.74,.57-.39,1.35-.25,1.74,.32,11.34,16.39,9.68,40.65,5.79,52.96-.17,.53-.66,.87-1.19,.87Z"/></g></g><g><g><path class="p" d="M293.48,756.73s61.88-52.62,59.59-62.62c-1.64-7.15-19.17,3.33-19.17,3.33,0,0,24.58-29.17,23.33-32.71-2.23-6.33-19.24,5.47-19.24,5.47,0,0,11.49-16.54,6-19.24-5.49-2.7-17.47,7.5-17.47,7.5,0,0,7-9.18,3.71-11.59-3.29-2.41-17.47,7.5-17.47,7.5,0,0,5.09-11.58-5.72-7.19-10.81,4.39-86.63,73.97-86.63,73.97l73.07,35.58Z"/><g><path class="l" d="M318.8,694.31c-.3,0-.6-.11-.84-.33-10.62-9.7-15.31-12.06-27.02-15.67-.66-.2-1.03-.9-.83-1.56,.2-.66,.9-1.03,1.56-.83,12.14,3.73,16.99,6.17,27.98,16.21,.51,.47,.55,1.26,.08,1.77-.25,.27-.58,.41-.92,.41Z"/><path class="l" d="M300.16,722.86c-.06,0-.12,0-.17-.01-.68-.1-1.16-.73-1.06-1.41,1.22-8.7,3.96-14.14,8.37-16.62,3.78-2.12,8.69-1.91,14.61,.65,.63,.27,.93,1.01,.65,1.64-.27,.63-1.01,.93-1.64,.65-5.16-2.23-9.33-2.49-12.39-.76-3.64,2.05-6.04,7.02-7.12,14.79-.09,.62-.62,1.08-1.24,1.08Z"/><path class="l" d="M297.24,670.25c-.33,0-.66-.13-.91-.39-.47-.5-.45-1.29,.05-1.77l15.53-14.63c.5-.48,1.29-.45,1.77,.05,.47,.5,.45,1.29-.05,1.77l-15.53,14.63c-.24,.23-.55,.34-.86,.34Z"/><path class="l" d="M311.61,675.25c-.31,0-.62-.12-.87-.35-.5-.48-.51-1.27-.04-1.77l14.92-15.54c.48-.5,1.27-.52,1.77-.04,.5,.48,.51,1.27,.04,1.77l-14.92,15.54c-.25,.26-.57,.38-.9,.38Z"/><path class="l" d="M326.3,684c-.31,0-.61-.11-.85-.34-.5-.47-.53-1.26-.06-1.77l11.7-12.55c.47-.5,1.26-.53,1.77-.06,.5,.47,.53,1.26,.06,1.77l-11.7,12.55c-.25,.26-.58,.4-.92,.4Z"/></g></g><g><path class="e" d="M527.24,1108.68l-226.25,8.75-25-206.25s75.74-71.84,104.88-98.3l49.2-2.52c152.63,69.38,127.64,156.03,97.17,298.32Z"/><path class="e" d="M430.07,810.36s174.62,14.93,229.67,134.57c53.87,117.07-167.5,158.75-167.5,158.75l-62.17-293.32Z"/><path class="e" d="M230.46,836l72.16-87.81-67.48-40.89c-28.15,19.57-82.58,63.9-128.71,114.1-10.18,11.08-18.14,24.02-22.14,38.27-3.42,12.16-4.04,24.17-2.12,35.93h0c5.01,30.66,29.12,54.31,61.31,58.08,27.49,3.22,132.5-5,217.5-30l25-96.49c-12.85-7.29-108.32-8.56-155.52,8.81Z"/></g><g class="i"><path class="d" d="M575.79,857.84c.38-.09,.75-.17,1.13-.26-.79-.47-1.58-.92-2.37-1.38-12.8,2.95-26,5.96-39.02,7.53-7.82,.94-33.96,2.67-41.59-14.74-3.8-8.66-.92-18.3,3.37-25.06-.63-.18-1.25-.36-1.87-.54-4.4,7.16-7.23,17.21-3.22,26.35,8.15,18.6,35.39,16.84,43.54,15.85,13.39-1.61,26.94-4.73,40.03-7.75Z"/><path class="d" d="M657.29,992.77c-8.34-3.22-16.96-6.56-26.02-5.7-15.89,1.5-29.49,17.22-30.32,35.03-.56,12.15,4.08,24.88,12.92,36.07,.53-.33,1.06-.67,1.59-1-8.65-10.88-13.19-23.23-12.64-34.98,.78-16.92,13.62-31.84,28.62-33.25,8.61-.8,16.66,2.3,25.17,5.58,3.04,1.17,6.13,2.36,9.27,3.36,.16-.6,.32-1.21,.46-1.82-3.06-.98-6.08-2.14-9.06-3.29Z"/><path class="d" d="M216.54,933.14c-10.9-9.02-27.84-11.43-46.47-6.61-16.6,4.29-30.84,12.8-40.62,24.05,.64,.21,1.27,.44,1.92,.63,9.52-10.68,23.23-18.75,39.17-22.87,18.03-4.67,34.37-2.39,44.8,6.24,4.96,4.1,8.47,9.43,11.02,15.17,.64-.07,1.29-.15,1.94-.22-2.67-6.18-6.39-11.95-11.76-16.4Z"/><path class="d" d="M117.98,809.13c20.43-5.08,40.36-12.21,58.75-22.8,6.95-4,14.79-9.1,20.31-16.59,5.87-7.97,7.82-17.46,5.22-25.38-1.02-3.11-2.83-5.84-5.09-8.02-.48,.39-.96,.79-1.44,1.18,2.11,2.01,3.8,4.54,4.75,7.43,2.41,7.35,.57,16.2-4.94,23.68-5.31,7.21-12.96,12.18-19.74,16.08-17.34,9.99-36.1,16.9-55.37,21.89-.82,.84-1.63,1.69-2.44,2.53Z"/></g><g><path class="p" d="M446.05,764.51l-.03,3.2-.51,49.73-.06,5.39c-.09,8.43-3.55,16.07-9.13,21.62-5.55,5.51-13.19,8.97-21.65,9.03-17.05,.09-31-13.6-31.16-30.68l-.6-61.46,63.14,3.17Z"/><path class="m" d="M446.02,767.71l-.51,49.73c-27.64-11.25-39.02-41.17-39.02-41.17l39.52-8.56Z"/><path class="p" d="M456.95,680.93c9.9,11.89,38.83,79.24,9.51,102.22-32.99,25.86-83.2-16.64-83.2-16.64l-6.74-78.45,43.58-11.49,36.85,4.36Z"/><path class="m" d="M354.32,676.61s-96.67,50.42-17.85,195.75c10.12,18.67,32.55,26.81,51.73,17.71h0c20.58-9.77,28.37-34.91,17.19-54.76-12.89-22.9-25.34-52.4-20.02-74.34l-31.05-84.35Z"/><circle class="n" cx="363.45" cy="700.47" r="26.15" transform="translate(-388.86 462.16) rotate(-45)"/><path class="m" d="M395.62,731.89c-2.83-16.31-4.55-27.5,11.94-35.91,0,0,58.11,10.57,69.2-11.36,11.09-21.92-5.81-56.52-41.2-32.49-90.6-17.7-102.75,67.09-75.28,95.35l27.11-4.16c5.46-.84,9.17-6,8.23-11.44Z"/><g><circle class="m" cx="440.61" cy="731.94" r="3.86"/><circle class="m" cx="466.76" cy="719.06" r="3.86"/><path class="m" d="M464.08,743.83c-.27,0-.54-.1-.75-.3-.44-.42-.46-1.11-.04-1.55,1.55-1.63,3.25-3.92,2.53-5.59-.74-1.73-3.87-2.47-5.31-2.47-3.08,0-4.56-5.48-4.83-6.58-.14-.59,.22-1.18,.81-1.32,.59-.15,1.18,.22,1.32,.81,.56,2.32,1.84,4.91,2.7,4.91,1.48,0,5.99,.7,7.32,3.8,.95,2.21-.04,4.89-2.96,7.96-.21,.23-.5,.34-.79,.34Z"/><path class="m" d="M464.28,758.48c-.21,0-.42-.06-.61-.19-7.27-4.91-14.62-.79-14.69-.75-.52,.3-1.19,.12-1.49-.4-.3-.52-.12-1.19,.4-1.49,.35-.2,8.61-4.83,17.01,.83,.5,.34,.63,1.02,.29,1.52-.21,.31-.56,.48-.91,.48Z"/><path class="m" d="M438.92,715.2c2.2,4.14-1.63,4.97-6.12,7.35s-9.08,3.26-10.13,1.28c-1.05-1.97,1.74-5.5,6.23-7.89s8.32-3.95,10.02-.75Z"/><path class="m" d="M455.28,707.74c.97,3.69,3.72,2.08,7.72,1.03s7.24-3.06,6.78-4.82c-.46-1.76-4.08-2.34-8.09-1.29-4.01,1.05-7.17,2.23-6.42,5.09Z"/></g><circle class="k" cx="422.78" cy="749.96" r="11.39" transform="translate(-396.45 485.31) rotate(-42.69)"/><ellipse class="p" cx="379.52" cy="750" rx="15.43" ry="17.53" transform="translate(-446.1 592.26) rotate(-52.34)"/><path class="m" d="M386.3,755.72c-.6,0-1.09-.49-1.09-1.09,0-3.23-1.57-6.21-4.21-7.99-2.25-1.52-4.94-1.87-7.19-.96-.56,.22-1.2-.04-1.43-.6-.23-.56,.04-1.2,.6-1.43,2.92-1.19,6.37-.76,9.23,1.17,3.24,2.18,5.18,5.84,5.18,9.8,0,.6-.49,1.09-1.09,1.09Z"/></g><g><rect class="m" x="181.65" y="856.09" width="58.14" height="2.5" transform="translate(-561.87 430.09) rotate(-47.25)"/><path class="m" d="M507.6,1018.63l-.73-2.39c28.73-8.76,56.62-19.23,81.89-50.83l1.95,1.56c-25.72,32.16-53.99,42.79-83.11,51.67Z"/></g></g><g><path class="o" d="M525.07,921.82h-244.42c-8.79,0-15.92,7.71-15.92,17.22v174.51c0,9.51,7.13,17.22,15.92,17.22h244.42c8.79,0,15.92-7.71,15.92-17.22v-174.51c0-9.51-7.13-17.22-15.92-17.22Z"/><path class="h" d="M415.77,1015.26c.93,0,1.68,.81,1.68,1.82v18.42c0,1-.75,1.82-1.68,1.82h-25.81c-.93,0-1.68-.81-1.68-1.82v-18.42c0-1,.75-1.82,1.68-1.82h25.81m0-5h-25.81c-3.68,0-6.68,3.06-6.68,6.82v18.42c0,3.76,3,6.82,6.68,6.82h25.81c3.68,0,6.68-3.06,6.68-6.82v-18.42c0-3.76-3-6.82-6.68-6.82h0Z"/></g></g></g><rect class="m" y="1311.18" width="1473.68" height="5"/></g></g></g></svg>