<svg viewBox="0 0 20 21" fill="none" xmlns="http://www.w3.org/2000/svg">
<path d="M9.02449 11.4163C8.76446 11.1892 8.36964 11.216 8.14263 11.476C7.91561 11.7361 7.94238 12.1309 8.2024 12.3579L9.02449 11.4163ZM14.1627 11.8871L14.5737 12.3579C14.5844 12.3486 14.5947 12.339 14.6046 12.329L14.1627 11.8871ZM15.1027 10.0632C14.8613 10.3098 14.8655 10.7055 15.1121 10.947C15.3588 11.1885 15.7545 11.1843 15.9959 10.9377L15.1027 10.0632ZM9.56285 4.50458C9.3162 4.74606 9.31201 5.14177 9.55349 5.38842C9.79497 5.63507 10.1907 5.63926 10.4373 5.39778L9.56285 4.50458ZM10.976 9.58417C11.2361 9.81119 11.6309 9.78442 11.8579 9.5244C12.0849 9.26437 12.0581 8.86955 11.7981 8.64254L10.976 9.58417ZM5.83782 9.11336L5.42678 8.64254C5.41616 8.65181 5.40585 8.66145 5.39587 8.67142L5.83782 9.11336ZM4.89778 10.9373C5.13926 10.6906 5.13507 10.2949 4.88842 10.0534C4.64177 9.81197 4.24606 9.81616 4.00458 10.0628L4.89778 10.9373ZM4.45118 10.5L4.00921 10.0581L4.00458 10.0628L4.45118 10.5ZM10.4377 16.4959C10.6843 16.2544 10.6885 15.8587 10.447 15.6121C10.2055 15.3654 9.80984 15.3612 9.56319 15.6027L10.4377 16.4959ZM8.2024 12.3579C10.0274 13.9512 12.7488 13.9512 14.5737 12.3579L13.7517 11.4163C12.3976 12.5984 10.3785 12.5984 9.02449 11.4163L8.2024 12.3579ZM14.6046 12.329L15.9913 10.9424L15.1074 10.0585L13.7208 11.4451L14.6046 12.329ZM15.9959 10.9377C17.7404 9.15584 17.7253 6.30172 15.9621 4.53847L15.0782 5.42235C16.3569 6.7011 16.3679 8.77097 15.1027 10.0632L15.9959 10.9377ZM15.9621 4.53847C14.1988 2.77521 11.3447 2.76009 9.56285 4.50458L10.4373 5.39778C11.7295 4.13263 13.7994 4.14359 15.0782 5.42235L15.9621 4.53847ZM11.7981 8.64254C9.97316 7.04928 7.25174 7.04928 5.42678 8.64254L6.24887 9.58417C7.60288 8.40206 9.62202 8.40206 10.976 9.58417L11.7981 8.64254ZM5.39587 8.67142L4.00923 10.0581L4.89313 10.942L6.27977 9.55529L5.39587 8.67142ZM4.00458 10.0628C2.26009 11.8446 2.27521 14.6987 4.03847 16.462L4.92235 15.5781C3.64359 14.2994 3.63263 12.2295 4.89778 10.9373L4.00458 10.0628ZM4.03847 16.462C5.80172 18.2253 8.65584 18.2404 10.4377 16.4959L9.56319 15.6027C8.27097 16.8678 6.2011 16.8569 4.92235 15.5781L4.03847 16.462Z" fill="currentColor"/>
</svg>
