<svg width="24" height="25" viewBox="0 0 24 25" fill="none" xmlns="http://www.w3.org/2000/svg">
<path d="M11 12.5H21" stroke="#323232" stroke-width="1.5" stroke-linecap="round" stroke-linejoin="round"/>
<path d="M6.41375 11.0857C7.19475 11.8668 7.19475 13.1327 6.41375 13.9137C5.63275 14.6947 4.36675 14.6947 3.58575 13.9137C2.80475 13.1327 2.80475 11.8668 3.58575 11.0857C4.36675 10.3047 5.63275 10.3047 6.41375 11.0857" stroke="#323232" stroke-width="1.5" stroke-linecap="round" stroke-linejoin="round"/>
<path d="M11 5.5H21" stroke="#323232" stroke-width="1.5" stroke-linecap="round" stroke-linejoin="round"/>
<path d="M3.01953 5.008L4.67253 6.496L7.99953 3.5" stroke="#323232" stroke-width="1.5" stroke-linecap="round" stroke-linejoin="round"/>
<path d="M11 19.5H21" stroke="#323232" stroke-width="1.5" stroke-linecap="round" stroke-linejoin="round"/>
<path d="M6.41375 18.0857C7.19475 18.8668 7.19475 20.1327 6.41375 20.9137C5.63275 21.6947 4.36675 21.6947 3.58575 20.9137C2.80475 20.1327 2.80475 18.8668 3.58575 18.0857C4.36675 17.3047 5.63275 17.3047 6.41375 18.0857" stroke="#323232" stroke-width="1.5" stroke-linecap="round" stroke-linejoin="round"/>
</svg>
