<svg viewBox="0 0 20 21" fill="none" xmlns="http://www.w3.org/2000/svg">
<path d="M10.328 9.6938V3.50195" stroke="currentColor" stroke-width="1.20907" stroke-linecap="round" stroke-linejoin="round"/>
<path fill-rule="evenodd" clip-rule="evenodd" d="M10.3281 9.69356L12.7473 7.27441L10.3281 9.69356Z" stroke="currentColor" stroke-width="1.20907" stroke-linecap="round" stroke-linejoin="round"/>
<path d="M3.07031 12.9189H6.60388C6.90905 12.9189 7.18807 13.0912 7.32479 13.3641L7.68524 14.0858C7.82186 14.3592 8.10131 14.5319 8.40695 14.5317H12.2478C12.5534 14.5319 12.8328 14.3592 12.9695 14.0858L13.3299 13.3649C13.4665 13.0915 13.746 12.9188 14.0516 12.9189H17.5852" stroke="currentColor" stroke-width="1.20907" stroke-linecap="round" stroke-linejoin="round"/>
<path d="M12.7469 3.24219H15.1661C16.5021 3.24219 17.5852 4.32528 17.5852 5.66134V15.3379C17.5852 16.674 16.5021 17.7571 15.1661 17.7571H5.48946C4.1534 17.7571 3.07031 16.674 3.07031 15.3379V5.66134C3.07031 4.32528 4.1534 3.24219 5.48946 3.24219H7.90861" stroke="currentColor" stroke-width="1.20907" stroke-linecap="round" stroke-linejoin="round"/>
<path fill-rule="evenodd" clip-rule="evenodd" d="M7.90918 7.27441L10.3283 9.69356L7.90918 7.27441Z" stroke="currentColor" stroke-width="1.20907" stroke-linecap="round" stroke-linejoin="round"/>
</svg>
