<svg viewBox="0 0 24 25" fill="none" xmlns="http://www.w3.org/2000/svg">
<path d="M13.5297 8.01953L9.46973 11.0595" stroke="currentColor" stroke-width="1.5" stroke-linecap="round" stroke-linejoin="round"/>
<path d="M16.4044 5.14203C17.1979 5.93558 17.1979 7.22217 16.4044 8.01571C15.6108 8.80926 14.3242 8.80926 13.5307 8.01571C12.7372 7.22217 12.7372 5.93557 13.5307 5.14203C14.3243 4.34849 15.6108 4.34849 16.4044 5.14203" stroke="currentColor" stroke-width="1.5" stroke-linecap="round" stroke-linejoin="round"/>
<path d="M13.5297 16.9795L9.46973 13.9395" stroke="currentColor" stroke-width="1.5" stroke-linecap="round" stroke-linejoin="round"/>
<path d="M16.4044 16.9838C17.1979 17.7774 17.1979 19.064 16.4044 19.8575C15.6108 20.6511 14.3242 20.6511 13.5307 19.8575C12.7372 19.064 12.7372 17.7774 13.5307 16.9838C14.3243 16.1903 15.6108 16.1903 16.4044 16.9838" stroke="currentColor" stroke-width="1.5" stroke-linecap="round" stroke-linejoin="round"/>
<path d="M9.46542 11.0643C10.2582 11.8571 10.2582 13.1424 9.46542 13.9351C8.67266 14.7279 7.38733 14.7279 6.59457 13.9351C5.80181 13.1424 5.80181 11.8571 6.59457 11.0643C7.38734 10.2715 8.67266 10.2715 9.46542 11.0643" stroke="currentColor" stroke-width="1.5" stroke-linecap="round" stroke-linejoin="round"/>
</svg>
