<svg width="24" height="24" viewBox="0 0 24 24" fill="none" xmlns="http://www.w3.org/2000/svg">
<g id="Smileys/Smileys">
<g id="Group">
<g id="Group_2">
<path id="Path" d="M21 12C21 7.038 16.962 3 12 3C7.037 3 3 7.037 3 12" stroke="#C9CBDA" stroke-width="1.5" stroke-linecap="round" stroke-linejoin="round"/>
<path id="Path_2" d="M3 12C3 16.963 7.037 21 12 21C16.963 21 21 16.962 21 12" stroke="#C9CBDA" stroke-width="1.5" stroke-linecap="round" stroke-linejoin="round"/>
<path id="Path_3" d="M15.3281 9.5C15.1901 9.5 15.0781 9.612 15.0791 9.75C15.0791 9.888 15.1911 10 15.3291 10C15.4671 10 15.5791 9.888 15.5791 9.75C15.5791 9.612 15.4671 9.5 15.3281 9.5" stroke="#C9CBDA" stroke-width="1.5" stroke-linecap="round" stroke-linejoin="round"/>
<path id="Path_4" d="M8.63865 9.5C8.50065 9.5 8.38865 9.612 8.38965 9.75C8.38965 9.888 8.50165 10 8.63965 10C8.77765 10 8.88965 9.888 8.88965 9.75C8.88965 9.612 8.77765 9.5 8.63865 9.5" stroke="#C9CBDA" stroke-width="1.5" stroke-linecap="round" stroke-linejoin="round"/>
<path id="Path_5" fill-rule="evenodd" clip-rule="evenodd" d="M12 17C13.667 17 15 15.667 15 14H9C9 15.667 10.333 17 12 17V17Z" stroke="#C9CBDA" stroke-width="1.5" stroke-linecap="round" stroke-linejoin="round"/>
</g>
</g>
</g>
</svg>
