<svg width="34" height="34" viewBox="0 0 34 34" fill="none" xmlns="http://www.w3.org/2000/svg">
<path d="M14.6368 15.4543C14.7563 15.5738 14.7563 15.7674 14.6368 15.8868C14.5174 16.0063 14.3238 16.0063 14.2043 15.8868C14.0849 15.7674 14.0849 15.5738 14.2043 15.4543C14.3238 15.3349 14.5174 15.3349 14.6368 15.4543" stroke="#C1C1C1" stroke-width="1.25" stroke-linecap="round" stroke-linejoin="round"/>
<path fill-rule="evenodd" clip-rule="evenodd" d="M16.7583 12.2417L22.7667 18.25C23.41 18.8933 23.41 19.9367 22.7667 20.58L19.33 24.0167C18.6867 24.66 17.6433 24.66 17 24.0167L10.9917 18.0083C10.8375 17.8542 10.75 17.6442 10.75 17.4258V12.8242C10.75 12.3692 11.1192 12 11.5742 12H16.1767C16.395 12 16.6042 12.0867 16.7583 12.2417V12.2417Z" stroke="#C1C1C1" stroke-width="1.25" stroke-linecap="round" stroke-linejoin="round"/>
<path d="M23.25 15.3333L17.8283 9.98083C17.5158 9.6725 17.0958 9.5 16.6575 9.5H13.25" stroke="#C1C1C1" stroke-width="1.25" stroke-linecap="round" stroke-linejoin="round"/>
<rect x="0.472222" y="0.472222" width="33.0556" height="33.0556" rx="16.5278" stroke="#C1C1C1" stroke-width="0.944444" stroke-dasharray="1.89 1.89"/>
</svg>
